<?xml version="1.0" encoding="UTF-8" standalone="no"?>
<svg
   xmlns:dc="http://purl.org/dc/elements/1.1/"
   xmlns:cc="http://creativecommons.org/ns#"
   xmlns:rdf="http://www.w3.org/1999/02/22-rdf-syntax-ns#"
   xmlns:svg="http://www.w3.org/2000/svg"
   xmlns="http://www.w3.org/2000/svg"
   xmlns:sodipodi="http://sodipodi.sourceforge.net/DTD/sodipodi-0.dtd"
   xmlns:inkscape="http://www.inkscape.org/namespaces/inkscape"
   width="200mm"
   height="200mm"
   viewBox="0 0 200 200"
   version="1.1"
   id="svg2624"
   inkscape:version="1.0.1 (3bc2e813f5, 2020-09-07)"
   sodipodi:docname="icon_birthday.svg">
  <defs
     id="defs2618" />
  <sodipodi:namedview
     id="base"
     pagecolor="#ffffff"
     bordercolor="#666666"
     borderopacity="1.0"
     inkscape:pageopacity="0.0"
     inkscape:pageshadow="2"
     inkscape:zoom="0.35"
     inkscape:cx="883.54547"
     inkscape:cy="421.72666"
     inkscape:document-units="mm"
     inkscape:current-layer="layer1"
     inkscape:document-rotation="0"
     showgrid="false"
     inkscape:snap-nodes="false"
     inkscape:snap-global="false"
     fit-margin-top="0"
     fit-margin-left="0"
     fit-margin-right="0"
     fit-margin-bottom="0"
     inkscape:window-width="1920"
     inkscape:window-height="1001"
     inkscape:window-x="-9"
     inkscape:window-y="-9"
     inkscape:window-maximized="1"
     inkscape:lockguides="false">
    <inkscape:grid
       type="xygrid"
       id="grid3206"
       originx="42.155197"
       originy="-210.32976" />
  </sodipodi:namedview>
  <metadata
     id="metadata2621">
    <rdf:RDF>
      <cc:Work
         rdf:about="">
        <dc:format>image/svg+xml</dc:format>
        <dc:type
           rdf:resource="http://purl.org/dc/dcmitype/StillImage" />
        <dc:title />
      </cc:Work>
    </rdf:RDF>
  </metadata>
  <g
     inkscape:label="Ebene 1"
     inkscape:groupmode="layer"
     id="layer1"
     transform="translate(42.155195,-210.32976)">
    <path
       id="rect922-00-6-4"
       style="fill:none;stroke:#000000;stroke-width:9.52064;stroke-linecap:round;stroke-linejoin:round;stroke-miterlimit:4;stroke-dasharray:none;stroke-opacity:1;paint-order:markers fill stroke"
       d="m 57.865629,218.72639 c 3.463266,0 10.94168,14.55796 10.94168,25.44578 0,6.06169 -4.879994,10.94167 -10.94168,10.94167 -6.061683,0 -10.941678,-4.87998 -10.941678,-10.94167 -0.65795,-9.86304 7.910613,-25.35424 10.941678,-25.44578 z M 46.26698,256.57362 h 23.155649 v 18.0665 H 46.26698 Z M 27.204547,218.72639 c 3.463265,0 10.941681,14.55796 10.941681,25.44578 0,6.06169 -4.879995,10.94167 -10.941681,10.94167 -6.061687,0 -10.941681,-4.87998 -10.941681,-10.94167 -0.65795,-9.86304 7.910615,-25.35424 10.941681,-25.44578 z m -11.598652,37.84723 h 23.155649 v 18.0665 H 15.605895 Z m 72.92082,-37.84723 c 3.463266,0 10.941682,14.55796 10.941682,25.44578 0,6.06169 -4.879996,10.94167 -10.941682,10.94167 -6.061686,0 -10.941679,-4.87998 -10.941679,-10.94167 -0.65795,-9.86304 7.910613,-25.35424 10.941679,-25.44578 z m -11.59865,37.84723 h 23.155645 v 18.0665 H 76.928065 Z m -90.33141,19.65231 H 129.09295 c 9.58594,0 17.30313,7.71719 17.30313,17.30311 v 33.0795 c 0,23.58109 -19.6767,-7.05286 -44.27564,-7.05286 -22.444266,0 -20.864147,7.05286 -44.275636,7.05286 -22.646733,0 -21.881913,-7.05286 -44.275636,-7.05286 -20.3394443,0 -44.275635,30.88841 -44.275635,7.05286 v -33.0795 c 0,-9.58593 7.717192,-17.30311 17.303122,-17.30311 z m -6.106986,61.58352 v 64.12368 H 138.50788 v -64.12368" />
  </g>
</svg>
